<svg id="logo" xmlns="http://www.w3.org/2000/svg" width="90.379" height="72.541" viewBox="0 0 90.379 72.541">
  <path id="Tracciato_1" data-name="Tracciato 1" d="M51.286,17.44H49.1L49.432,0h62.5l.334,17.44h-2.042q-1.1-7.168-3-10.351t-4.079-3.905a26.665,26.665,0,0,0-7.456-.722H85.336v51.2a107.574,107.574,0,0,0,.357,11.18A5.888,5.888,0,0,0,87.617,68.8q1.568,1.266,5.9,1.285h3.135v2.459H64.524V70.082h3.324q4.135,0,5.723-1.177a5.588,5.588,0,0,0,2.042-3.665,87.108,87.108,0,0,0,.452-11.582V2.462H66.513q-6.2,0-8.341.668T54.157,7.168Q52.283,10.538,51.286,17.44Z" transform="translate(-35.306)" fill="#363636"/>
  <path id="Tracciato_2" data-name="Tracciato 2" d="M28.426,152.92c0,8.842-6.363,16.009-14.213,16.009S0,161.762,0,152.92Z" transform="translate(0 -104.528)" fill="#363636"/>
  <path id="Tracciato_3" data-name="Tracciato 3" d="M248.946,152.92c0,8.842-6.363,16.009-14.213,16.009s-14.213-7.168-14.213-16.009Z" transform="translate(-158.566 -104.528)" fill="#363636"/>
</svg>
