<svg id="logo" xmlns="http://www.w3.org/2000/svg" width="34.379" height="27.541" viewBox="0 0 34.379 27.541">
  <path id="Tracciato_1" data-name="Tracciato 1" d="M49.931,6.621H49.1L49.226,0H73l.127,6.621h-.777a11.461,11.461,0,0,0-1.14-3.93,3.121,3.121,0,0,0-1.552-1.483A10.162,10.162,0,0,0,66.823.935H62.884V20.372a40.762,40.762,0,0,0,.136,4.245,2.234,2.234,0,0,0,.732,1.5A3.781,3.781,0,0,0,66,26.607h1.193v.934H54.967v-.934h1.264a3.842,3.842,0,0,0,2.177-.447,2.121,2.121,0,0,0,.777-1.391,33.01,33.01,0,0,0,.172-4.4V.935H55.724a12.761,12.761,0,0,0-3.173.254,2.983,2.983,0,0,0-1.527,1.533A11.838,11.838,0,0,0,49.931,6.621Z" transform="translate(-43.853)" fill="#fff"/>
  <path id="Tracciato_2" data-name="Tracciato 2" d="M10.813,152.92c0,3.357-2.421,6.078-5.406,6.078S0,156.277,0,152.92Z" transform="translate(0 -134.548)" fill="#fff"/>
  <path id="Tracciato_3" data-name="Tracciato 3" d="M231.333,152.92c0,3.357-2.421,6.078-5.406,6.078s-5.406-2.721-5.406-6.078Z" transform="translate(-196.953 -134.548)" fill="#fff"/>
</svg>
